<svg width="239" height="36" viewBox="0 0 239 36" fill="none" xmlns="http://www.w3.org/2000/svg">
<path d="M16.04 5.4C17.88 5.4 19.44 5.77333 20.72 6.52C22 7.26667 22.8933 8.37333 23.4 9.84C23.9333 11.28 23.9867 13.0533 23.56 15.16L21.2 27H16.2L18.52 15.28C18.8667 13.5467 18.7067 12.2 18.04 11.24C17.3733 10.2533 16.16 9.76 14.4 9.76C12.56 9.76 11.04 10.2667 9.84 11.28C8.64 12.2933 7.82667 13.84 7.4 15.92L5.16 27H0.16L4.4 5.64H9.16L7.96 11.72L7.16 9.8C8.17333 8.28 9.44 7.17333 10.96 6.48C12.5067 5.76 14.2 5.4 16.04 5.4ZM42.3019 27.28C40.1685 27.28 38.3152 26.8933 36.7419 26.12C35.1685 25.32 33.9419 24.2267 33.0619 22.84C32.2085 21.4267 31.7819 19.7733 31.7819 17.88C31.7819 15.4533 32.3152 13.3067 33.3819 11.44C34.4485 9.57333 35.9019 8.10667 37.7419 7.04C39.6085 5.94667 41.7285 5.4 44.1019 5.4C46.1019 5.4 47.8352 5.77333 49.3019 6.52C50.7685 7.26667 51.9019 8.34667 52.7019 9.76C53.5285 11.1467 53.9419 12.8133 53.9419 14.76C53.9419 15.2667 53.9152 15.7867 53.8619 16.32C53.8085 16.8533 53.7285 17.3467 53.6219 17.8H35.5019L36.0619 14.48H51.2619L49.2219 15.6C49.4352 14.24 49.3419 13.1067 48.9419 12.2C48.5419 11.2933 47.9019 10.6 47.0219 10.12C46.1419 9.64 45.0885 9.4 43.8619 9.4C42.3952 9.4 41.1152 9.74667 40.0219 10.44C38.9552 11.1067 38.1285 12.0667 37.5419 13.32C36.9552 14.5467 36.6619 15.9867 36.6619 17.64C36.6619 19.3733 37.1552 20.7067 38.1419 21.64C39.1552 22.5733 40.7152 23.04 42.8219 23.04C44.0219 23.04 45.1685 22.8533 46.2619 22.48C47.3552 22.08 48.2619 21.5333 48.9819 20.84L51.0619 24.32C49.9419 25.3067 48.6085 26.0533 47.0619 26.56C45.5419 27.04 43.9552 27.28 42.3019 27.28ZM56.7616 27L68.7616 14.64L68.2016 17.24L61.6816 5.64H66.8816L71.6016 14.2L69.2816 14.16L77.4416 5.64H83.0416L71.5616 17.56L71.9616 14.8L78.8816 27H73.6016L68.6816 18.08H70.9616L62.5216 27H56.7616ZM94.6913 27.28C93.3046 27.28 92.1046 26.9867 91.0913 26.4C90.1046 25.7867 89.3846 24.9333 88.9313 23.84C88.5046 22.72 88.4379 21.4 88.7313 19.88L92.5313 0.92H97.5313L93.7313 19.84C93.5713 20.8267 93.6779 21.6267 94.0513 22.24C94.4246 22.8533 95.1313 23.16 96.1713 23.16C96.6513 23.16 97.1313 23.0933 97.6113 22.96C98.1179 22.8 98.5713 22.5867 98.9713 22.32L99.8513 26C99.1046 26.48 98.2779 26.8133 97.3713 27C96.4646 27.1867 95.5713 27.28 94.6913 27.28ZM87.2913 9.8L88.0913 5.8H102.291L101.491 9.8H87.2913Z" fill="#196CFF"/>
<path d="M115.581 35.04C113.555 35.04 111.688 34.7867 109.981 34.28C108.275 33.8 106.808 33.08 105.581 32.12L108.181 28.36C109.008 29.08 110.101 29.6533 111.461 30.08C112.821 30.5333 114.301 30.76 115.901 30.76C118.248 30.76 120.021 30.24 121.221 29.2C122.421 28.1867 123.221 26.6533 123.621 24.6L124.501 20.2L125.821 15.68L126.621 10.84L127.621 5.64H132.381L128.781 23.76C127.981 27.7333 126.488 30.6 124.301 32.36C122.115 34.1467 119.208 35.04 115.581 35.04ZM116.821 26.04C114.981 26.04 113.341 25.6933 111.901 25C110.461 24.28 109.328 23.2667 108.501 21.96C107.675 20.6267 107.261 19.04 107.261 17.2C107.261 15.52 107.555 13.9733 108.141 12.56C108.755 11.12 109.595 9.86667 110.661 8.8C111.755 7.73333 113.035 6.90667 114.501 6.32C115.995 5.70667 117.621 5.4 119.381 5.4C120.928 5.4 122.355 5.68 123.661 6.24C124.968 6.77333 126.008 7.65333 126.781 8.88C127.555 10.08 127.915 11.6667 127.861 13.64C127.808 15.9867 127.341 18.1067 126.461 20C125.581 21.8667 124.328 23.3467 122.701 24.44C121.075 25.5067 119.115 26.04 116.821 26.04ZM117.941 21.8C119.381 21.8 120.648 21.4933 121.741 20.88C122.835 20.24 123.688 19.3733 124.301 18.28C124.941 17.16 125.261 15.9067 125.261 14.52C125.261 13 124.768 11.8133 123.781 10.96C122.795 10.08 121.421 9.64 119.661 9.64C118.221 9.64 116.955 9.96 115.861 10.6C114.768 11.2133 113.901 12.0667 113.261 13.16C112.621 14.2533 112.301 15.5067 112.301 16.92C112.301 18.44 112.795 19.64 113.781 20.52C114.795 21.3733 116.181 21.8 117.941 21.8ZM148.315 27.28C146.581 27.28 144.995 26.9067 143.555 26.16C142.141 25.4133 141.008 24.3467 140.155 22.96C139.328 21.5467 138.915 19.8533 138.915 17.88C138.915 16.0667 139.208 14.4 139.795 12.88C140.408 11.36 141.261 10.04 142.355 8.92C143.448 7.8 144.715 6.93333 146.155 6.32C147.621 5.70667 149.221 5.4 150.955 5.4C152.741 5.4 154.275 5.72 155.555 6.36C156.861 7 157.848 7.97333 158.515 9.28C159.181 10.56 159.488 12.16 159.435 14.08C159.381 16.72 158.901 19.04 157.995 21.04C157.088 23.0133 155.821 24.5467 154.195 25.64C152.568 26.7333 150.608 27.28 148.315 27.28ZM149.595 23C151.035 23 152.301 22.6667 153.395 22C154.488 21.3067 155.355 20.36 155.995 19.16C156.635 17.96 156.955 16.5733 156.955 15C156.955 13.3467 156.461 12.04 155.475 11.08C154.488 10.12 153.101 9.64 151.315 9.64C149.901 9.64 148.635 9.98667 147.515 10.68C146.421 11.3467 145.555 12.28 144.915 13.48C144.275 14.68 143.955 16.0667 143.955 17.64C143.955 19.2933 144.448 20.6 145.435 21.56C146.421 22.52 147.808 23 149.595 23ZM154.835 27L155.795 22.12L157.155 16.44L157.835 10.72L158.835 5.64H163.835L159.595 27H154.835ZM200.777 5.4C202.643 5.4 204.203 5.77333 205.457 6.52C206.71 7.26667 207.59 8.37333 208.097 9.84C208.603 11.28 208.643 13.0533 208.217 15.16L205.857 27H200.857L203.217 15.28C203.563 13.52 203.417 12.16 202.777 11.2C202.137 10.24 200.977 9.76 199.297 9.76C197.563 9.76 196.137 10.2667 195.017 11.28C193.923 12.2667 193.163 13.8 192.737 15.88L190.497 27H185.497L187.857 15.28C188.203 13.52 188.057 12.16 187.417 11.2C186.777 10.24 185.617 9.76 183.937 9.76C182.203 9.76 180.777 10.2667 179.657 11.28C178.563 12.2667 177.803 13.8133 177.377 15.92L175.137 27H170.137L174.377 5.64H179.137L177.977 11.52L177.137 9.8C178.123 8.28 179.35 7.17333 180.817 6.48C182.31 5.76 183.937 5.4 185.697 5.4C187.083 5.4 188.31 5.64 189.377 6.12C190.443 6.57333 191.297 7.28 191.937 8.24C192.603 9.17333 192.99 10.3333 193.097 11.72L190.697 11.2C191.79 9.28 193.19 7.84 194.897 6.88C196.63 5.89333 198.59 5.4 200.777 5.4ZM227.005 27.28C224.872 27.28 223.018 26.8933 221.445 26.12C219.872 25.32 218.645 24.2267 217.765 22.84C216.912 21.4267 216.485 19.7733 216.485 17.88C216.485 15.4533 217.018 13.3067 218.085 11.44C219.152 9.57333 220.605 8.10667 222.445 7.04C224.312 5.94667 226.432 5.4 228.805 5.4C230.805 5.4 232.538 5.77333 234.005 6.52C235.472 7.26667 236.605 8.34667 237.405 9.76C238.232 11.1467 238.645 12.8133 238.645 14.76C238.645 15.2667 238.618 15.7867 238.565 16.32C238.512 16.8533 238.432 17.3467 238.325 17.8H220.205L220.765 14.48H235.965L233.925 15.6C234.138 14.24 234.045 13.1067 233.645 12.2C233.245 11.2933 232.605 10.6 231.725 10.12C230.845 9.64 229.792 9.4 228.565 9.4C227.098 9.4 225.818 9.74667 224.725 10.44C223.658 11.1067 222.832 12.0667 222.245 13.32C221.658 14.5467 221.365 15.9867 221.365 17.64C221.365 19.3733 221.858 20.7067 222.845 21.64C223.858 22.5733 225.418 23.04 227.525 23.04C228.725 23.04 229.872 22.8533 230.965 22.48C232.058 22.08 232.965 21.5333 233.685 20.84L235.765 24.32C234.645 25.3067 233.312 26.0533 231.765 26.56C230.245 27.04 228.658 27.28 227.005 27.28Z" fill="white"/>
</svg>
